<?xml version="1.0" encoding="utf-8"?>
<!-- Generator: Adobe Illustrator 24.1.1, SVG Export Plug-In . SVG Version: 6.00 Build 0)  -->
<svg version="1.1" id="Capa_1" xmlns="http://www.w3.org/2000/svg" xmlns:xlink="http://www.w3.org/1999/xlink" x="0px" y="0px"
	 viewBox="0 0 595.3 500.8" style="enable-background:new 0 0 595.3 500.8;" xml:space="preserve">
<style type="text/css">
	.st0{fill:#00918B;}
	.st1{fill:#FFFFFF;stroke:#00918B;stroke-miterlimit:10;}
	.st2{fill:#FFFFFF;}
	.st3{font-family:'Garamond';}
	.st4{font-size:124.6198px;}
</style>
<path class="st0" d="M393,82.3c5-0.3,12.5,0.3,16.2,2.8l-3.7,4.6c-11.8,13.9-23.3,31.1-28.6,48c-1,3.9-0.1,7,4.1,8.4
	c9.1,2.4,19.3,2.6,26.8,13.1c9.5,12.9-9.3,23.1,0,35.2c4.5,7.2,1.4,17.3-2,23.9c-2.9,3.6-7.8,5.1-9.5,9.2c7.2,16.9-15,17-12.2,39
	c40.2,33.6,71.9,80.6,69.3,135.4c-4.5,36.8-41.6,53.2-69.8,59.9c-35.2,7.2-78.3,12.6-108-11.5c-27.8-21-45.2-55.5-36.4-92.5
	c4.7-17.2,12.2-33.4,23.8-47.4c-5.2-2.8-11.4,0-17.1,0c-3.6,5.1-2.4,12.1-2.2,18.5c-5.7,3.3-14,0.5-19.5,4.8
	c-0.7,9.2,1.6,14.2,0,22.1c-15,1.1-27.8,3.3-42.8,2.6c0.2-41.1-1.8-82.5-17.1-117.5c-7.3-16.8-14.4-32.5-22.8-50.1
	c-0.5-3.6,2.9-4,5.2-4.8c26.7-2.1,51.9-0.5,78.8-3.6l8.6-3.1c11.9-15.9,21.9-32.3,33.8-48.3c8.1-6.9,19-1.8,29-4
	c3.4-2.4,1.8-6.4,0.5-9.2L281,92.9c-3.2-7.9,6-8.2,10.2-10c15.8-6.9,21,27.6,34.8-1.6c10.9-7.7,17.9,9.2,28.3,6.2
	C363.4,73.7,382.8,71,393,82.3L393,82.3z"/>
<path class="st1" d="M342.9,140c7.1,12.9,15.7,24.6,20.5,38.3c0,1.2-2.9,3.8-3.8,4c-14.6,2-20.6-12.9-31.2-19.6
	c-11.3,3.9-15.2,14.9-22.5,23.6c-1.5,10.6-4.7,23.9,0.5,33.4c-2.4,11.4-2.4,23.9-1,35.7c-7,14.3-17.8,26.9-28.5,39.5l-33-0.8
	l-0.1-1.2c-2.6-31.5-4.6-70.9-3.2-102.7c10.8-16.9,22.8-35.1,35.5-50.6C297.7,139.2,321.8,138.5,342.9,140L342.9,140z"/>
<path class="st2" d="M397.6,162.9c2.4,3.1,3.3,9.4,2.4,13c-7.2,4.4-14.5,2.4-22.4,1.1c-4.3-4.4-7.3-10.3-8.6-16.5
	C379,160.4,389.2,157.6,397.6,162.9L397.6,162.9z"/>
<path class="st2" d="M400.4,201.7c0.2,5.4-2.9,10.7-8.2,11.4l-69.4,4.8c-4,0-6.5-2.3-8.6-6.2c-2.1-4.8-0.2-9.4,2.9-12.3
	c12.6-6.9,26.8-5.5,43.3-6.9C377.5,192.3,397.7,185.1,400.4,201.7L400.4,201.7z"/>
<path class="st2" d="M231.5,209.9c0.5,34.2,3.8,68,2.9,102.2c-2.9,0.8-6.9,1.2-9.1,0c-2.4-38.2-2.9-76-4.1-114
	c1.1-3.1,6-1.8,8.6-1.2L231.5,209.9L231.5,209.9z"/>
<path class="st2" d="M386.8,233.8c0,6.2-3.8,10.6-9.3,11c-16.6,0.8-37,1.3-53.6,2.1c-4.5-0.8-7.3-2.8-8-8.3c0-3.1,0.8-8.2,6.3-9.6
	c18.6,0,35.4-1.8,54.4-2.8C380.7,226.3,386.4,228.1,386.8,233.8L386.8,233.8z"/>
<path class="st2" d="M368.5,259.5c4.2,1.3,5.1,7.6,3.8,10.9c-1.1,2.7-1.9,4-7.1,4.4l-42.1,2.2c-3.7,0-7.1-2.4-7.6-6.2
	c-0.7-6.7,4.6-10.7,10-11.2C341,259.4,353.6,256.5,368.5,259.5L368.5,259.5z"/>
<text transform="matrix(1.5582 0 0 1 301.6739 405.4992)" class="st2 st3 st4">$</text>
</svg>
