<?xml version="1.0" encoding="utf-8"?>
<!-- Generator: Adobe Illustrator 24.1.1, SVG Export Plug-In . SVG Version: 6.00 Build 0)  -->
<svg version="1.1" id="Capa_1" xmlns:xodm="http://www.corel.com/coreldraw/odm/2003"
	 xmlns="http://www.w3.org/2000/svg" xmlns:xlink="http://www.w3.org/1999/xlink" x="0px" y="0px" viewBox="0 0 930.5 424.4"
	 style="enable-background:new 0 0 930.5 424.4;" xml:space="preserve">
<style type="text/css">
	.st0{fill:#00918B;}
</style>
<g id="Configuration_x0020_Icon">
	<g id="_1854505239968">
		<path class="st0" d="M602.1,130.1l-11.7-33.6l-23.5,8.8c-6.2-10.8-13.9-19.1-23-26.1l11-24.1l-31.1-15.2l-11.3,24.4
			c-11-2.8-22.7-3.4-34.6-1.5L469,37.2l-32.4,12.2l8.9,25.7c-9.3,6-18.2,14.4-24.9,23.9l-23.2-11.5l-14.5,32.4l23.3,11.1
			c-2.7,11.5-3.5,22.9-1.6,35.3l-25,9.4l11.7,33.6l25-9.4c6.2,10.8,14,19.6,23.1,26.6l-10.9,24.4l31.1,15.2l10.6-24.1
			c11,2.8,23,3.3,33.8,1.8l8.6,24.8l32.4-12.2l-8.6-24.7c10.4-6.4,19-14.7,25.7-24.2l23.5,11.3l14.7-32.4L577,174.8
			c2.7-11.5,3.4-23.5,1.5-35.8L602.1,130.1L602.1,130.1z M505.6,190.9L505.6,190.9c-20.1,7.6-42.3-3.3-49.6-24.2s3.1-44,23.3-51.6
			c20.1-7.6,42.3,3.3,49.6,24.2C536.1,160.3,525.7,183.4,505.6,190.9L505.6,190.9z"/>
		<path class="st0" d="M663.6,294.4l1.6-19.9l-13.9-1.2c-0.7-7.2-2.8-12.8-5.8-18.6l11-9.5l-12.4-15.2l-11.5,9.7
			c-4.9-4.1-9.4-7.1-17.5-9.1l1.2-14.9l-20.5-1.8l-1.2,14.9c-4.2,1-11.4,3-17,6.1l-8.7-11.4l-14.3,12.9l9.5,11.1
			c-4,5.1-6.8,10.3-8.6,17.3l-14.8-1.3l-1.6,19.9l14.8,1.3c0.6,8.7,2.7,13.5,5.8,19.3l-11,9.8l12.4,15.3l9.7-9.7
			c4.9,4.1,11.7,7.4,15.7,9.1l-1.1,13.5l20.5,1.8l1.1-13.5c8.3-0.6,13.2-2.8,18.7-6l9.6,11.5L650,323l-9.2-11.8
			c4-5.1,6.9-9.6,8.9-18L663.6,294.4L663.6,294.4z M601,302.3L601,302.3c-11.9-1-20.7-11.9-19.7-24.3c1-12.4,11.5-21.6,23.4-20.5
			c11.9,1,20.7,11.9,19.7,24.3C623.3,294.2,612.9,303.4,601,302.3L601,302.3z"/>
		<path class="st0" d="M444.1,304.8v-28.5h-19.2c-1.8-10.5-5.4-18.9-10.4-26.6l14.4-15.3l-19.2-20.1L394,229.2
			c-7.5-5.2-16.2-9-26.3-10.9v-21.6h-27.4v21.6c-8.7,1.9-16.1,5.6-23.5,10.8l-13.7-15l-18.9,20l14.6,15.6c-5,7.7-8.4,16.1-10.2,26.6
			h-23.4v28.5h23.4c1.8,9,5.4,17.6,10.4,25.3l-14.4,14.6l19.2,19.8l12.9-15.1c7.4,5.2,14.9,8.8,23.5,10.7v22.7h27.4v-22.7
			c10.1-1.9,18.9-5.6,26.3-10.8l15.1,15l19.5-20l-14.2-14.3c5-7.7,8.8-16.3,10.5-25.3L444.1,304.8L444.1,304.8z M357.2,321.2
			L357.2,321.2c-16.9,0-30.6-14.2-30.6-31.8c0-17.6,13.7-31.8,30.6-31.8s30.6,14.3,30.6,31.8C387.8,307,374.1,321.2,357.2,321.2z"/>
	</g>
</g>
</svg>
