<?xml version="1.0" encoding="utf-8"?>
<!-- Generator: Adobe Illustrator 24.1.1, SVG Export Plug-In . SVG Version: 6.00 Build 0)  -->
<svg version="1.1" id="Capa_1" xmlns="http://www.w3.org/2000/svg" xmlns:xlink="http://www.w3.org/1999/xlink" x="0px" y="0px"
	 viewBox="0 0 500 500" style="enable-background:new 0 0 500 500;" xml:space="preserve">
<style type="text/css">
	.st0{fill:#00918B;}
	.st1{fill-rule:evenodd;clip-rule:evenodd;fill:#00918B;}
</style>
<path class="st0" d="M159.2,170.8c-4,0-7.1,3.2-7.1,7.2v116.3c0,4,3.2,7.2,7.1,7.2h68.6v22H220c-1.4,0-2.6,1.2-2.6,2.6
	s1.2,2.6,2.6,2.6H280c1.4,0,2.6-1.2,2.6-2.6c0-1.4-1.2-2.6-2.6-2.6h-7.8v-22h68.6c4,0,7.1-3.2,7.1-7.2V178c0-4-3.2-7.2-7.1-7.2
	H159.2z M161.1,179.7h177.7v112.2H161.1L161.1,179.7z"/>
<g>
	<path shape-rendering="auto" color-rendering="auto" image-rendering="auto" class="st1" d="M320.7,203.9l-29.3,32.1l-38.5-7.1
		l-29.8,29.3l-26.7-11l-23.6,28.1l2.7,2.3l22-26.1l26.5,10.9l30.1-29.6l38.6,7.1l30.6-33.5L320.7,203.9L320.7,203.9z"/>
	<path class="st1" d="M176.4,273.4c1.5,1.2,1.7,3.5,0.4,5c-1.2,1.5-3.5,1.7-5,0.4c-1.5-1.2-1.7-3.5-0.4-5
		C172.7,272.4,174.9,272.2,176.4,273.4z"/>
	<path class="st1" d="M200.3,248.1c0.5,1.9-0.7,3.8-2.6,4.3c-1.9,0.5-3.8-0.7-4.2-2.6c-0.5-1.9,0.7-3.8,2.6-4.2
		C198,245.1,199.9,246.3,200.3,248.1L200.3,248.1z"/>
	<path class="st1" d="M227,259.4c0.4,1.9-0.9,3.8-2.8,4.1c-1.9,0.4-3.8-0.9-4.1-2.8c-0.4-1.9,0.9-3.8,2.8-4.1
		C224.8,256.2,226.6,257.5,227,259.4z"/>
	<path class="st1" d="M256.8,229.9c0.6,1.9-0.5,3.8-2.3,4.4c-1.9,0.6-3.8-0.5-4.4-2.3c-0.6-1.9,0.5-3.8,2.3-4.4
		C254.3,227,256.3,228,256.8,229.9z"/>
	<path class="st1" d="M295.3,236.9c0.6,1.8-0.4,3.8-2.2,4.4c-1.8,0.6-3.8-0.4-4.4-2.2c-0.6-1.8,0.4-3.8,2.2-4.4
		C292.7,234.1,294.7,235.1,295.3,236.9z"/>
	<path class="st1" d="M324.3,202.5c1.4,1.3,1.5,3.5,0.2,5s-3.5,1.5-5,0.2c-1.4-1.3-1.5-3.5-0.2-5
		C320.7,201.3,322.9,201.2,324.3,202.5z"/>
</g>
</svg>
