<?xml version="1.0" encoding="utf-8"?>
<!-- Generator: Adobe Illustrator 24.1.1, SVG Export Plug-In . SVG Version: 6.00 Build 0)  -->
<svg version="1.1" id="Capa_1" xmlns="http://www.w3.org/2000/svg" xmlns:xlink="http://www.w3.org/1999/xlink" x="0px" y="0px"
	 viewBox="0 0 947 743.9" style="enable-background:new 0 0 947 743.9;" xml:space="preserve">
<style type="text/css">
	.st0{fill:#00918B;}
</style>
<g id="Layer_5">
	<path class="st0" d="M219,493c267.4,281.8,478.2,0,478.2,0C464.4,208.1,219,493,219,493z M460.5,596.9c-58.5,0-106-46.7-106-104.3
		s47.5-104.3,106-104.3s106,46.7,106,104.3S519,596.9,460.5,596.9z"/>
	<path class="st0" d="M461.4,466.9c0-21.9,18-39.6,40.3-39.6c0.4,0,0.8,0,1.2,0.1c-12.1-8.7-26.6-13.3-41.5-13.2
		c-39,0-70.7,31.1-70.7,69.6s31.6,69.6,70.7,69.6c35.6,0,65-25.9,69.9-59.6c-7.7,8.3-18.5,13-29.7,12.9
		C479.4,506.5,461.4,488.8,461.4,466.9z"/>
</g>
</svg>
